<svg width="1024" height="1024" viewBox="0 0 1024 1024" fill="none" xmlns="http://www.w3.org/2000/svg">
<g clip-path="url(#clip0_45609_322)">
<rect width="1024" height="1024" fill="#F8F8FA"/>
<rect x="1" y="-1" width="1024" height="1024" fill="#51C87D"/>
<path d="M270.72 568.52H236.22L361.8 438.8H419.3V586H361.8V485.72L379.05 492.85L288.2 586H219.2L128.12 493.08L145.6 485.95V586H88.1V438.8H145.6L270.72 568.52ZM437.826 438.8H677.026V482.5H437.826V438.8ZM528.676 479.51H586.176V586H528.676V479.51ZM753.296 548.05V507.8H868.066C872.666 507.8 876.499 507.11 879.566 505.73C882.786 504.197 884.396 501.053 884.396 496.3C884.396 491.393 882.786 488.25 879.566 486.87C876.499 485.49 872.666 484.8 868.066 484.8H756.976V586H699.476V438.8H859.096C870.596 438.8 881.329 439.643 891.296 441.33C901.416 442.863 910.233 445.7 917.746 449.84C925.259 453.98 931.163 459.807 935.456 467.32C939.749 474.833 941.896 484.493 941.896 496.3C941.896 508.107 939.749 517.46 935.456 524.36C931.163 531.26 925.259 536.397 917.746 539.77C910.233 543.143 901.416 545.367 891.296 546.44C881.329 547.513 870.596 548.05 859.096 548.05H753.296Z" fill="white"/>
</g>
<defs>
<clipPath id="clip0_45609_322">
<rect width="1024" height="1024" fill="white"/>
</clipPath>
</defs>
</svg>
